<svg width="512" height="512" viewBox="0 0 512 512" fill="none" xmlns="http://www.w3.org/2000/svg">
<g clip-path="url(#clip0_2653_386)">
<mask id="mask0_2653_386" style="mask-type:luminance" maskUnits="userSpaceOnUse" x="-95" y="-93" width="700" height="700">
<path d="M348.651 -92.6484L-94.7539 163.352L161.246 606.757L604.651 350.757L348.651 -92.6484Z" fill="white"/>
</mask>
<g mask="url(#mask0_2653_386)">
<path d="M265.845 144.651C278.403 137.4 294.461 141.703 301.712 154.262L367.353 267.956C374.603 280.514 370.301 296.57 357.743 303.823L157.606 419.371C151.497 422.897 144.219 423.819 137.423 421.921L48.9191 397.222C35.1566 393.382 26.9919 379.237 30.5486 365.4L53.4077 276.404C55.1656 269.567 59.5995 263.727 65.7093 260.197L265.845 144.651ZM117.974 287.63C97.88 299.229 90.9953 324.924 102.597 345.015C114.199 365.11 139.891 371.994 159.986 360.392C180.076 348.791 186.961 323.098 175.363 303.004C163.761 282.913 138.069 276.029 117.974 287.63Z" fill="#4E9AD0"/>
<path d="M114.784 51.0322C118.624 37.2697 132.766 29.1046 146.603 32.6596L235.599 55.5208C242.436 57.2769 248.276 61.7108 251.806 67.8227L367.353 267.959C374.603 280.517 370.301 296.573 357.743 303.823L244.051 369.465C231.489 376.715 215.433 372.414 208.183 359.856L92.635 159.72C89.1056 153.608 88.1875 146.333 90.0853 139.534L114.784 51.0322ZM166.988 104.71C146.893 116.311 140.012 142.004 151.611 162.097C163.213 182.19 188.905 189.075 208.999 177.474C229.09 165.873 235.975 140.18 224.376 120.087C212.774 99.9941 187.082 93.1094 166.988 104.71Z" fill="#4E9AD0"/>
<path d="M367.353 267.959C374.603 280.516 370.301 296.573 357.743 303.823L244.051 369.464C231.489 376.714 215.433 372.413 208.183 359.856L92.635 159.72C89.1056 153.608 88.1874 146.332 90.0818 139.534L114.781 51.0321C118.624 37.2692 132.766 29.1049 146.603 32.6595L235.599 55.5207C242.436 57.2765 248.276 61.7104 251.806 67.8227L367.353 267.959ZM224.376 120.087C212.774 99.9937 187.082 93.109 166.988 104.71C146.893 116.31 140.012 142.004 151.611 162.097C163.213 182.19 188.905 189.074 208.999 177.474C229.09 165.873 235.975 140.18 224.376 120.087Z" fill="#4E9AD0"/>
<path d="M460.976 116.894C474.738 120.736 482.903 134.877 479.348 148.717L456.487 237.711C454.731 244.547 450.297 250.389 444.185 253.918L244.049 369.466C231.492 376.716 215.435 372.412 208.182 359.854L142.544 246.161C135.294 233.603 139.595 217.544 152.152 210.294L352.287 94.7464C358.4 91.217 365.675 90.2978 372.474 92.1953L460.976 116.894ZM407.298 169.1C395.697 149.007 370.004 142.122 349.911 153.723C329.818 165.324 322.933 191.017 334.534 211.11C346.135 231.203 371.828 238.088 391.921 226.487C412.014 214.886 418.899 189.193 407.298 169.1Z" fill="#4E9AD0"/>
<path d="M244.049 369.476C231.492 376.726 215.435 372.422 208.182 359.864L142.544 246.17C135.294 233.612 139.595 217.554 152.152 210.303L352.288 94.7563C358.4 91.2276 365.675 90.3074 372.473 92.2045L460.975 116.903C474.738 120.744 482.903 134.887 479.348 148.726L456.487 237.721C454.731 244.557 450.298 250.399 444.185 253.928L244.049 369.476ZM391.921 226.497C412.014 214.896 418.899 189.203 407.298 169.11C395.697 149.016 370.004 142.132 349.911 153.733C329.818 165.334 322.933 191.027 334.535 211.12C346.135 231.214 371.828 238.097 391.921 226.497Z" fill="#4E9AD0"/>
<path d="M395.104 463.085C391.263 476.848 377.121 485.012 363.281 481.456L274.287 458.597C267.451 456.839 261.608 452.405 258.082 446.292L142.534 246.159C135.284 233.601 139.585 217.542 152.143 210.292L265.837 144.651C278.395 137.401 294.454 141.703 301.704 154.261L417.252 354.394C420.781 360.508 421.7 367.785 419.803 374.581L395.104 463.085ZM342.898 409.407C362.991 397.805 369.876 372.113 358.275 352.019C346.674 331.928 320.981 325.043 300.888 336.642C280.795 348.244 273.91 373.936 285.511 394.03C297.112 414.124 322.805 421.006 342.898 409.407Z" fill="#4E9AD0"/>
</g>
<mask id="mask1_2653_386" style="mask-type:luminance" maskUnits="userSpaceOnUse" x="-95" y="-93" width="700" height="700">
<path d="M348.648 606.757L604.648 163.352L161.243 -92.6484L-94.7565 350.757L348.648 606.757Z" fill="white"/>
</mask>
<g mask="url(#mask1_2653_386)">
<path d="M301.708 359.856C294.458 372.414 278.399 376.715 265.841 369.465L152.146 303.823C139.588 296.573 135.288 280.517 142.538 267.959L258.086 67.8231C261.615 61.7108 267.455 57.2769 274.291 55.5208L363.285 32.6596C377.125 29.1046 391.266 37.2697 395.107 51.0322L419.807 139.534C421.704 146.333 420.785 153.608 417.256 159.72L301.708 359.856ZM358.279 162.097C369.88 142.004 362.995 116.311 342.902 104.71C322.809 93.1094 297.116 99.9941 285.515 120.087C273.914 140.18 280.799 165.873 300.892 177.474C320.985 189.075 346.678 182.191 358.279 162.097Z" fill="#235789"/>
<path d="M479.34 365.4C482.895 379.237 474.731 393.382 460.968 397.222L372.466 421.921C365.668 423.819 358.392 422.897 352.28 419.371L152.145 303.823C139.587 296.57 135.283 280.514 142.536 267.956L208.175 154.262C215.425 141.703 231.484 137.4 244.042 144.651L444.177 260.197C450.29 263.727 454.724 269.567 456.479 276.404L479.34 365.4ZM407.29 345.015C418.891 324.924 412.006 299.229 391.913 287.63C371.82 276.029 346.127 282.913 334.526 303.004C322.925 323.098 329.81 348.791 349.903 360.392C369.996 371.994 395.69 365.11 407.29 345.015Z" fill="#235789"/>
<path d="M152.144 303.823C139.587 296.57 135.283 280.514 142.536 267.956L208.174 154.262C215.424 141.703 231.484 137.4 244.042 144.651L444.177 260.197C450.289 263.727 454.723 269.567 456.479 276.404L479.34 365.4C482.895 379.237 474.73 393.379 460.968 397.222L372.466 421.921C365.667 423.819 358.392 422.897 352.28 419.371L152.144 303.823ZM349.903 360.392C369.996 371.994 395.689 365.11 407.29 345.015C418.891 324.924 412.006 299.229 391.913 287.63C371.82 276.029 346.127 282.913 334.526 303.004C322.925 323.098 329.809 348.791 349.903 360.392Z" fill="#235789"/>
<path d="M146.598 481.46C132.757 485.016 118.615 476.852 114.775 463.089L90.0764 374.585C88.1786 367.789 89.0969 360.511 92.6262 354.398L208.174 154.265C215.424 141.707 231.484 137.404 244.042 144.655L357.735 210.296C370.293 217.546 374.596 233.605 367.345 246.163L251.797 446.295C248.267 452.409 242.427 456.843 235.59 458.6L146.598 481.46ZM166.979 409.411C187.073 421.009 212.765 414.128 224.367 394.034C235.969 373.94 229.084 348.247 208.99 336.645C188.896 325.047 163.204 331.932 151.602 352.023C140.003 372.117 146.888 397.809 166.979 409.411Z" fill="#235789"/>
<path d="M208.175 154.252C215.424 141.694 231.484 137.391 244.042 144.641L357.735 210.282C370.293 217.533 374.595 233.591 367.345 246.149L251.797 446.282C248.268 452.395 242.427 456.829 235.59 458.587L146.598 481.446C132.757 485.002 118.615 476.838 114.775 463.075L90.0766 374.571C88.1788 367.775 89.097 360.498 92.6264 354.384L208.175 154.252ZM151.602 352.009C140.003 372.103 146.888 397.795 166.979 409.397C187.073 420.999 212.765 414.114 224.367 394.02C235.969 373.926 229.085 348.234 208.99 336.632C188.896 325.033 163.204 331.918 151.602 352.009Z" fill="#235789"/>
<path d="M30.5491 148.716C26.9924 134.877 35.1571 120.735 48.9196 116.894L137.421 92.1949C144.22 90.2978 151.497 91.2174 157.607 94.7464L357.742 210.294C370.3 217.544 374.604 233.603 367.353 246.161L301.712 359.854C294.462 372.412 278.403 376.716 265.845 369.466L65.7099 253.918C59.5966 250.389 55.1627 244.547 53.4082 237.711L30.5491 148.716ZM102.598 169.1C90.9958 189.193 97.8805 214.886 117.975 226.487C138.069 238.088 163.761 231.203 175.363 211.11C186.962 191.017 180.077 165.324 159.986 153.723C139.892 142.122 114.2 149.007 102.598 169.1Z" fill="#235789"/>
</g>
<mask id="mask2_2653_386" style="mask-type:luminance" maskUnits="userSpaceOnUse" x="0" y="-1" width="513" height="513">
<path d="M512.484 511.51L512.484 -0.490212L0.484406 -0.490234L0.484383 511.51L512.484 511.51Z" fill="white"/>
</mask>
<g mask="url(#mask2_2653_386)">
<path d="M348.379 321.155C348.379 335.658 336.624 347.414 322.123 347.414L190.84 347.414C176.34 347.414 164.585 335.658 164.585 321.155L164.585 90.061C164.585 83.0032 167.425 76.2421 172.466 71.3033L238.108 7.00879C248.317 -2.98989 264.646 -2.98988 274.854 7.00879L340.495 71.3033C345.537 76.2421 348.379 83.0025 348.379 90.061L348.379 321.155ZM298.492 121.607C298.492 98.4059 279.683 79.5971 256.482 79.5971C233.278 79.5971 214.471 98.4059 214.471 121.607C214.471 144.809 233.278 163.618 256.482 163.618C279.683 163.618 298.492 144.809 298.492 121.607Z" fill="white"/>
<path d="M504.985 237.144C514.984 247.352 514.984 263.681 504.985 273.89L440.691 339.532C435.752 344.573 428.991 347.413 421.933 347.413L190.839 347.413C176.336 347.413 164.58 335.658 164.58 321.158L164.581 189.876C164.581 175.374 176.336 163.619 190.839 163.619L421.933 163.619C428.991 163.619 435.752 166.46 440.691 171.503L504.985 237.144ZM432.397 255.516C432.397 232.315 413.588 213.506 390.387 213.506C367.185 213.506 348.377 232.315 348.377 255.516C348.377 278.72 367.185 297.527 390.387 297.527C413.588 297.527 432.397 278.72 432.397 255.516Z" fill="white"/>
<path d="M190.836 347.413C176.336 347.413 164.58 335.658 164.58 321.158L164.58 189.876C164.58 175.375 176.336 163.619 190.836 163.619L421.933 163.619C428.991 163.619 435.752 166.46 440.691 171.503L504.986 237.144C514.984 247.352 514.984 263.681 504.986 273.89L440.691 339.532C435.752 344.573 428.991 347.413 421.933 347.413L190.836 347.413ZM390.386 297.527C413.587 297.527 432.396 278.72 432.396 255.516C432.396 232.315 413.587 213.506 390.386 213.506C367.185 213.506 348.376 232.315 348.376 255.516C348.376 278.72 367.185 297.527 390.386 297.527Z" fill="white"/>
<path d="M274.854 504.02C264.646 514.017 248.317 514.017 238.108 504.02L172.466 439.726C167.425 434.787 164.585 428.025 164.585 420.967L164.585 189.872C164.585 175.371 176.34 163.615 190.84 163.615L322.123 163.615C336.623 163.615 348.379 175.371 348.379 189.872L348.379 420.967C348.379 428.025 345.537 434.787 340.495 439.726L274.854 504.02ZM256.482 431.432C279.683 431.432 298.492 412.621 298.492 389.421C298.492 366.22 279.683 347.409 256.482 347.409C233.278 347.409 214.471 366.22 214.471 389.421C214.471 412.621 233.278 431.432 256.482 431.432Z" fill="white"/>
<path d="M164.577 189.872C164.577 175.371 176.333 163.615 190.832 163.615L322.115 163.615C336.616 163.615 348.37 175.371 348.371 189.872L348.37 420.967C348.37 428.025 345.529 434.787 340.487 439.723L274.846 504.02C264.638 514.017 248.31 514.017 238.1 504.02L172.458 439.723C167.417 434.787 164.577 428.025 164.577 420.967L164.577 189.872ZM214.463 389.421C214.463 412.621 233.27 431.432 256.474 431.432C279.675 431.432 298.483 412.621 298.483 389.421C298.483 366.22 279.675 347.409 256.474 347.409C233.27 347.409 214.463 366.22 214.463 389.421Z" fill="white"/>
<path d="M7.97473 273.886C-2.02292 263.677 -2.02292 247.348 7.97473 237.14L72.2682 171.499C77.2073 166.457 83.9691 163.615 91.0279 163.615L322.123 163.615C336.623 163.615 348.379 175.371 348.379 189.872L348.379 321.154C348.379 335.654 336.623 347.409 322.123 347.409L91.0279 347.409C83.9691 347.409 77.2073 344.569 72.2682 339.524L7.97473 273.886ZM80.5627 255.512C80.5627 278.716 99.3735 297.523 122.574 297.523C145.774 297.523 164.585 278.716 164.585 255.512C164.585 232.311 145.774 213.502 122.574 213.502C99.3735 213.502 80.5627 232.311 80.5627 255.512Z" fill="white"/>
</g>
</g>
<defs>
<clipPath id="clip0_2653_386">
<rect width="512" height="512" fill="white" transform="translate(512 2.23802e-05) rotate(90)"/>
</clipPath>
</defs>
</svg>
