<svg width="513" height="513" viewBox="0 0 513 513" fill="none" xmlns="http://www.w3.org/2000/svg">
<g clip-path="url(#clip0_2469_27)">
<path d="M174.051 248.501C168.733 239.29 171.889 227.511 181.1 222.193L264.492 174.047C273.703 168.729 285.482 171.885 290.8 181.096L375.552 327.891C378.14 332.374 378.814 337.71 377.423 342.696L359.307 407.611C356.489 417.705 346.117 423.694 335.966 421.087L270.69 404.319C265.676 403.031 261.391 399.778 258.803 395.295L174.051 248.501ZM278.922 356.961C287.431 371.699 306.277 376.748 321.015 368.239C335.752 359.73 340.802 340.885 332.293 326.147C323.784 311.409 304.939 306.36 290.201 314.868C275.463 323.377 270.413 342.223 278.922 356.961Z" fill="#235789"/>
<path d="M105.385 359.302C95.29 356.484 89.3012 346.112 91.9088 335.961L108.677 270.685C109.965 265.671 113.217 261.387 117.7 258.799L264.495 174.047C273.706 168.729 285.484 171.885 290.802 181.096L338.949 264.488C344.267 273.699 341.111 285.477 331.9 290.795L185.105 375.547C180.622 378.136 175.286 378.81 170.299 377.418L105.385 359.302ZM144.756 321.01C153.265 335.748 172.111 340.798 186.849 332.289C201.586 323.78 206.636 304.934 198.127 290.197C189.618 275.459 170.773 270.409 156.035 278.918C141.297 287.427 136.247 306.272 144.756 321.01Z" fill="#235789"/>
<path d="M264.495 174.047C273.706 168.729 285.484 171.885 290.802 181.096L338.949 264.488C344.267 273.699 341.111 285.477 331.9 290.795L185.105 375.547C180.622 378.136 175.286 378.81 170.299 377.418L105.385 359.302C95.2901 356.485 89.3016 346.112 91.909 335.961L108.677 270.686C109.965 265.671 113.217 261.387 117.7 258.799L264.495 174.047ZM156.035 278.918C141.297 287.427 136.247 306.272 144.756 321.01C153.265 335.748 172.111 340.798 186.849 332.289C201.586 323.78 206.636 304.934 198.127 290.197C189.618 275.459 170.773 270.409 156.035 278.918Z" fill="#235789"/>
<path d="M153.692 105.379C156.51 95.2842 166.882 89.2955 177.033 91.903L242.309 108.671C247.323 109.959 251.607 113.212 254.196 117.695L338.947 264.489C344.265 273.7 341.109 285.479 331.898 290.797L248.506 338.943C239.295 344.261 227.517 341.105 222.199 331.894L137.447 185.1C134.859 180.616 134.184 175.28 135.576 170.293L153.692 105.379ZM191.984 144.75C177.246 153.259 172.196 172.105 180.705 186.843C189.214 201.581 208.06 206.63 222.798 198.121C237.535 189.612 242.585 170.767 234.076 156.029C225.567 141.291 206.722 136.242 191.984 144.75Z" fill="#235789"/>
<path d="M338.955 264.489C344.273 273.7 341.118 285.478 331.906 290.797L248.514 338.943C239.303 344.261 227.525 341.105 222.207 331.894L137.455 185.099C134.867 180.616 134.192 175.28 135.584 170.293L153.7 105.379C156.517 95.2844 166.89 89.2955 177.041 91.903L242.317 108.671C247.331 109.959 251.615 113.211 254.204 117.695L338.955 264.489ZM234.084 156.029C225.575 141.291 206.73 136.241 191.992 144.75C177.254 153.259 172.205 172.105 180.714 186.842C189.222 201.58 208.068 206.63 222.806 198.121C237.544 189.612 242.593 170.767 234.084 156.029Z" fill="#235789"/>
<path d="M407.617 153.692C417.711 156.509 423.7 166.882 421.093 177.033L404.325 242.308C403.036 247.322 399.784 251.607 395.301 254.195L248.506 338.947C239.295 344.265 227.517 341.109 222.199 331.898L174.053 248.506C168.735 239.295 171.891 227.516 181.102 222.198L327.896 137.447C332.379 134.858 337.716 134.184 342.702 135.576L407.617 153.692ZM368.245 191.983C359.736 177.246 340.891 172.196 326.153 180.705C311.415 189.214 306.365 208.059 314.874 222.797C323.383 237.535 342.229 242.585 356.966 234.076C371.704 225.567 376.754 206.721 368.245 191.983Z" fill="#235789"/>
</g>
<g clip-path="url(#clip1_2469_27)">
<path d="M331.9 222.205C341.111 227.523 344.267 239.301 338.949 248.512L290.803 331.904C285.485 341.115 273.706 344.271 264.495 338.953L117.7 254.201C113.217 251.613 109.965 247.329 108.677 242.315L91.9088 177.039C89.3012 166.888 95.29 156.516 105.385 153.698L170.299 135.582C175.286 134.19 180.622 134.864 185.105 137.453L331.9 222.205ZM186.849 180.711C172.111 172.202 153.265 177.252 144.756 191.99C136.247 206.728 141.297 225.573 156.035 234.082C170.773 242.591 189.618 237.541 198.127 222.803C206.636 208.066 201.586 189.22 186.849 180.711Z" fill="#204162"/>
<path d="M335.966 91.9135C346.117 89.306 356.489 95.2946 359.307 105.389L377.423 170.304C378.814 175.29 378.14 180.626 375.552 185.109L290.8 331.904C285.482 341.115 273.703 344.271 264.492 338.953L181.1 290.807C171.889 285.489 168.733 273.71 174.051 264.499L258.803 117.705C261.391 113.222 265.676 109.969 270.69 108.681L335.966 91.9135ZM321.015 144.761C306.277 136.252 287.431 141.301 278.922 156.039C270.413 170.777 275.463 189.623 290.201 198.132C304.939 206.64 323.784 201.591 332.293 186.853C340.802 172.115 335.752 153.27 321.015 144.761Z" fill="#204162"/>
<path d="M290.8 331.904C285.482 341.115 273.703 344.271 264.492 338.953L181.1 290.807C171.889 285.489 168.733 273.71 174.051 264.499L258.803 117.705C261.391 113.222 265.676 109.969 270.69 108.681L335.965 91.9132C346.116 89.3056 356.489 95.2945 359.306 105.389L377.422 170.303C378.814 175.29 378.14 180.626 375.552 185.109L290.8 331.904ZM332.293 186.853C340.802 172.115 335.752 153.27 321.015 144.761C306.277 136.252 287.431 141.301 278.922 156.039C270.413 170.777 275.463 189.623 290.201 198.132C304.939 206.64 323.784 201.591 332.293 186.853Z" fill="#204162"/>
<path d="M421.092 335.972C423.7 346.122 417.711 356.495 407.616 359.312L342.702 377.429C337.716 378.82 332.379 378.146 327.896 375.557L181.102 290.806C171.891 285.488 168.735 273.709 174.053 264.498L222.199 181.106C227.517 171.895 239.295 168.739 248.506 174.057L395.301 258.809C399.784 261.397 403.036 265.682 404.324 270.696L421.092 335.972ZM368.245 321.02C376.754 306.283 371.704 287.437 356.967 278.928C342.229 270.419 323.383 275.469 314.874 290.207C306.365 304.945 311.415 323.79 326.153 332.299C340.891 340.808 359.736 335.758 368.245 321.02Z" fill="#204162"/>
<path d="M181.09 290.811C171.879 285.493 168.723 273.715 174.041 264.504L222.187 181.112C227.505 171.901 239.283 168.745 248.495 174.063L395.289 258.815C399.772 261.403 403.025 265.687 404.313 270.701L421.081 335.977C423.688 346.128 417.699 356.501 407.605 359.318L342.69 377.435C337.704 378.826 332.368 378.152 327.884 375.564L181.09 290.811ZM326.141 332.305C340.879 340.814 359.724 335.765 368.233 321.027C376.742 306.289 371.692 287.443 356.955 278.935C342.217 270.426 323.371 275.475 314.862 290.213C306.353 304.951 311.403 323.796 326.141 332.305Z" fill="#204162"/>
<path d="M177.033 421.093C166.882 423.7 156.509 417.712 153.692 407.617L135.576 342.703C134.184 337.716 134.859 332.38 137.447 327.896L222.199 181.102C227.517 171.891 239.295 168.735 248.506 174.053L331.898 222.199C341.109 227.517 344.265 239.296 338.947 248.507L254.196 395.301C251.607 399.785 247.323 403.037 242.309 404.325L177.033 421.093ZM191.984 368.246C206.722 376.754 225.567 371.705 234.076 356.967C242.585 342.229 237.535 323.384 222.798 314.875C208.06 306.366 189.214 311.416 180.705 326.153C172.196 340.891 177.246 359.737 191.984 368.246Z" fill="#204162"/>
</g>
<g clip-path="url(#clip2_2469_27)">
<path d="M303.581 188.195C314.202 188.195 322.812 196.805 322.812 207.426V303.58C322.812 314.201 314.202 322.811 303.581 322.811H134.322C129.152 322.811 124.2 320.729 120.583 317.037L73.4924 268.96C66.1692 261.483 66.1692 249.523 73.4924 242.046L120.583 193.97C124.2 190.277 129.152 188.195 134.322 188.195H303.581ZM157.427 224.734C140.434 224.734 126.658 238.51 126.658 255.503C126.658 272.496 140.434 286.272 157.427 286.272C174.42 286.272 188.196 272.496 188.196 255.503C188.196 238.51 174.42 224.734 157.427 224.734Z" fill="#4E9AD0"/>
<path d="M242.046 73.4924C249.523 66.1692 261.483 66.1692 268.96 73.4924L317.037 120.583C320.729 124.2 322.811 129.152 322.811 134.322V303.581C322.811 314.202 314.201 322.812 303.58 322.812H207.426C196.805 322.812 188.195 314.202 188.195 303.581V134.322C188.195 129.152 190.276 124.2 193.969 120.583L242.046 73.4924ZM255.503 126.658C238.51 126.658 224.734 140.434 224.734 157.427C224.734 174.42 238.51 188.196 255.503 188.196C272.496 188.196 286.272 174.42 286.272 157.427C286.272 140.434 272.496 126.658 255.503 126.658Z" fill="#4E9AD0"/>
<path d="M322.811 303.581C322.811 314.202 314.201 322.812 303.58 322.812H207.426C196.805 322.812 188.195 314.202 188.195 303.581V134.322C188.195 129.152 190.276 124.2 193.969 120.583L242.047 73.4923C249.523 66.1693 261.483 66.1692 268.96 73.4923L317.037 120.583C320.73 124.2 322.811 129.152 322.811 134.322V303.581ZM286.272 157.427C286.272 140.434 272.496 126.658 255.503 126.658C238.51 126.658 224.734 140.434 224.734 157.427C224.734 174.421 238.51 188.197 255.503 188.197C272.496 188.197 286.272 174.421 286.272 157.427Z" fill="#4E9AD0"/>
<path d="M437.515 242.047C444.838 249.523 444.838 261.483 437.515 268.96L390.424 317.037C386.807 320.729 381.855 322.811 376.685 322.811H207.426C196.805 322.811 188.195 314.201 188.195 303.58V207.426C188.195 196.805 196.805 188.195 207.426 188.195H376.685C381.855 188.195 386.807 190.277 390.424 193.97L437.515 242.047ZM384.349 255.503C384.349 238.51 370.573 224.734 353.58 224.734C336.587 224.734 322.811 238.51 322.811 255.503C322.811 272.496 336.587 286.272 353.58 286.272C370.573 286.272 384.349 272.496 384.349 255.503Z" fill="#4E9AD0"/>
<path d="M207.426 322.815C196.805 322.815 188.195 314.205 188.195 303.584V207.43C188.195 196.809 196.805 188.2 207.426 188.199L376.685 188.2C381.855 188.2 386.806 190.281 390.424 193.974L437.515 242.051C444.838 249.528 444.838 261.488 437.515 268.964L390.424 317.041C386.806 320.734 381.854 322.815 376.685 322.815L207.426 322.815ZM353.58 286.277C370.573 286.277 384.349 272.501 384.349 255.507C384.349 238.514 370.573 224.738 353.58 224.738C336.587 224.738 322.811 238.514 322.811 255.507C322.811 272.501 336.587 286.276 353.58 286.277Z" fill="#4E9AD0"/>
<path d="M268.959 437.511C261.483 444.834 249.523 444.834 242.046 437.511L193.969 390.42C190.277 386.802 188.195 381.851 188.195 376.681V207.422C188.195 196.802 196.805 188.191 207.426 188.191H303.58C314.201 188.191 322.811 196.802 322.811 207.422V376.681C322.811 381.851 320.729 386.802 317.036 390.42L268.959 437.511ZM255.503 384.345C272.496 384.345 286.272 370.569 286.272 353.576C286.272 336.583 272.496 322.807 255.503 322.807C238.51 322.807 224.734 336.583 224.734 353.576C224.734 370.569 238.51 384.345 255.503 384.345Z" fill="#4E9AD0"/>
</g>
<defs>
<clipPath id="clip0_2469_27">
<rect width="375.541" height="375.541" fill="white" transform="translate(187.77 512.998) rotate(-120)"/>
</clipPath>
<clipPath id="clip1_2469_27">
<rect width="375.541" height="375.541" fill="white" transform="translate(187.77 0.00195312) rotate(30)"/>
</clipPath>
<clipPath id="clip2_2469_27">
<rect width="375" height="375" fill="white" transform="translate(68 68)"/>
</clipPath>
</defs>
</svg>
